<?xml version="1.0" encoding="UTF-8" standalone="no"?>
<!DOCTYPE svg PUBLIC "-//W3C//DTD SVG 1.1//EN" "http://www.w3.org/Graphics/SVG/1.1/DTD/svg11.dtd">
<svg xmlns="http://www.w3.org/2000/svg" version="1.1" viewBox="0 0 1374 763" width="1374.0pt" height="763.0pt">
<path d="M 0.00 0.00 L 1374.00 0.00 L 1374.00 763.00 L 0.00 763.00 L 0.00 0.00 Z" fill="#ffffff" />
<path d="M 454.50 52.86 C 468.25 66.60 481.85 80.59 495.77 94.15 C 505.58 103.69 514.89 113.75 524.80 123.19 C 535.19 133.45 545.35 143.95 555.77 154.17 C 563.23 162.07 571.27 169.39 578.76 177.25 C 587.45 185.54 595.62 194.36 604.18 202.78 C 615.88 214.07 627.19 225.79 638.78 237.21 C 643.37 242.27 648.66 246.58 653.02 251.85 C 657.26 251.98 658.68 248.96 661.47 246.42 C 667.78 240.07 674.06 233.71 680.13 227.13 C 719.10 188.13 758.13 149.07 797.12 110.11 C 813.23 93.91 829.28 77.63 845.47 61.51 C 848.31 58.42 850.91 55.21 854.36 52.73 C 854.76 54.81 855.19 56.86 855.26 58.99 C 855.22 127.63 855.25 196.35 855.24 265.00 C 855.37 269.55 855.35 274.00 854.57 278.50 C 841.93 278.66 829.22 278.66 816.58 278.51 C 816.21 272.66 816.35 266.85 816.35 261.00 C 816.34 228.33 816.35 195.67 816.34 163.00 C 816.26 157.30 816.80 151.74 815.67 146.09 C 793.11 168.70 770.55 191.31 748.15 214.09 C 738.35 223.35 729.61 233.57 719.95 242.95 C 709.47 253.77 698.63 264.21 688.32 275.18 C 683.73 280.31 678.43 284.70 673.88 289.88 C 656.09 308.06 638.08 326.03 620.15 344.08 C 616.38 347.98 612.36 351.02 609.94 356.04 C 608.58 358.50 607.26 360.97 605.72 363.32 C 605.60 364.47 605.49 365.63 605.38 366.79 C 604.70 367.35 604.02 367.91 603.34 368.47 C 603.19 373.71 602.25 378.81 601.68 383.99 C 602.26 389.47 603.13 394.90 603.41 400.42 C 604.04 400.92 604.66 401.42 605.28 401.92 C 605.43 403.14 605.59 404.36 605.75 405.58 C 607.28 407.97 608.63 410.47 610.18 412.84 C 610.40 413.54 610.62 414.24 610.84 414.93 C 615.32 419.95 620.06 424.62 625.05 429.12 C 626.06 429.28 627.08 429.43 628.09 429.59 C 628.44 430.11 628.78 430.64 629.12 431.17 C 631.17 432.01 633.07 432.95 634.95 434.13 C 636.29 434.34 637.64 434.54 638.98 434.76 C 640.88 435.94 642.51 437.17 644.87 437.15 C 653.25 437.41 661.62 437.47 670.00 437.42 C 718.60 437.45 767.21 437.36 815.81 437.47 C 816.04 435.31 816.32 433.16 816.38 431.00 C 816.32 412.67 816.32 394.33 816.39 376.00 C 816.39 373.49 815.92 371.06 815.45 368.61 C 767.89 368.48 720.30 368.76 672.74 368.47 C 674.21 364.43 677.25 362.06 680.14 359.12 C 687.97 350.96 696.02 343.01 703.77 334.77 C 705.27 333.29 706.99 331.32 709.05 330.66 C 713.27 329.99 717.73 330.41 722.00 330.37 C 766.19 330.39 810.41 330.34 854.59 330.39 C 855.32 334.92 855.37 339.43 855.25 344.00 C 855.24 387.84 855.23 431.67 855.26 475.51 C 853.18 475.78 851.09 476.13 849.00 476.24 C 788.67 476.20 728.33 476.24 668.00 476.22 C 661.32 476.17 654.69 476.49 648.03 475.85 C 644.16 475.50 639.73 476.21 636.14 474.84 C 632.53 473.48 628.70 473.28 625.15 471.79 C 623.33 471.07 621.47 470.55 619.57 470.09 C 618.93 469.63 618.29 469.17 617.66 468.71 C 615.38 468.06 613.67 467.34 611.86 465.81 C 611.14 465.61 610.42 465.42 609.70 465.22 C 606.50 462.68 602.85 460.83 599.61 458.38 C 593.97 453.35 588.55 448.12 583.48 442.52 C 579.81 439.09 578.21 434.41 574.80 430.74 C 574.60 429.89 574.39 429.03 574.18 428.18 C 572.51 426.30 571.91 425.11 571.32 422.65 C 570.83 421.95 570.34 421.26 569.84 420.56 C 569.27 417.80 568.36 415.57 566.94 413.15 C 566.62 410.51 566.08 408.23 565.09 405.77 C 563.87 402.74 564.32 399.33 563.91 395.98 C 563.53 391.34 562.13 387.49 562.52 383.02 C 562.86 379.51 563.66 376.08 563.90 372.55 C 564.39 368.33 563.55 364.66 566.27 361.05 C 566.46 359.30 566.62 357.55 566.79 355.80 C 568.44 353.28 569.26 351.17 569.82 348.18 C 570.42 347.55 571.02 346.92 571.62 346.30 C 571.68 345.18 571.75 344.05 571.81 342.93 C 572.63 342.30 573.45 341.67 574.26 341.04 C 574.44 340.08 574.61 339.12 574.78 338.16 C 576.22 336.26 577.82 334.50 579.26 332.61 C 579.45 331.79 579.65 330.97 579.84 330.15 C 584.58 325.74 588.49 320.61 593.01 316.01 C 599.67 309.33 606.29 302.62 612.96 295.96 C 617.63 291.38 621.77 286.35 626.72 282.05 C 626.51 281.05 626.30 280.04 626.08 279.03 C 581.62 234.85 537.44 190.27 492.96 146.11 C 492.25 150.42 492.31 154.66 492.41 159.00 C 492.40 264.52 492.42 370.03 492.40 475.55 C 485.92 476.66 479.53 476.12 473.00 476.21 C 466.47 476.16 460.05 476.60 453.56 475.52 C 453.46 338.35 453.57 201.17 453.51 64.00 C 453.46 60.18 453.18 56.53 454.50 52.86 Z" fill="#a78807" />
<path d="M 90.49 529.79 C 207.66 529.81 324.83 529.80 442.00 529.76 C 715.90 529.73 989.79 529.80 1263.69 529.79 C 1263.72 531.02 1263.75 532.26 1263.79 533.49 C 872.65 533.49 481.52 533.49 90.38 533.48 C 90.42 532.25 90.45 531.02 90.49 529.79 Z" fill="#a78807" />
<path d="M 245.44 595.56 C 250.57 599.70 253.41 605.27 255.64 611.36 C 250.78 611.40 245.91 611.41 241.05 611.35 C 239.28 607.86 237.71 604.71 233.84 603.17 C 228.91 601.43 222.69 601.92 219.02 606.03 C 215.24 610.15 213.98 616.58 213.75 621.99 C 213.70 627.36 214.60 633.69 217.85 638.14 C 222.51 645.04 234.89 645.82 239.58 638.56 C 241.64 635.79 241.68 632.82 242.13 629.54 C 238.20 629.50 234.28 629.50 230.35 629.51 C 230.36 626.19 230.36 622.87 230.37 619.55 C 238.81 619.56 247.25 619.57 255.70 619.54 C 255.75 630.96 255.70 642.38 255.72 653.80 C 252.29 653.79 248.86 653.79 245.43 653.79 C 245.39 650.72 245.41 647.66 245.37 644.59 C 242.62 648.28 239.94 651.63 235.47 653.26 C 227.42 656.07 217.42 654.88 210.85 649.17 C 204.64 644.07 201.53 636.81 200.32 629.02 C 198.98 622.12 200.05 614.78 202.30 608.19 C 205.26 599.90 212.05 592.88 220.76 590.83 C 228.94 588.89 238.83 589.98 245.44 595.56 Z" fill="#a78807" />
<path d="M 726.54 590.84 C 735.14 588.82 745.14 590.05 752.01 595.96 C 758.37 601.22 761.52 609.00 762.51 617.03 C 763.44 625.83 762.40 634.98 757.63 642.60 C 753.76 648.80 747.26 653.02 740.08 654.24 C 732.82 655.27 725.54 654.70 719.15 650.85 C 711.85 646.58 707.62 639.07 706.07 630.92 C 704.29 621.55 705.40 610.76 710.54 602.56 C 714.10 596.74 719.90 592.42 726.54 590.84 Z" fill="#a78807" />
<path d="M 834.45 590.68 C 842.56 589.00 851.92 590.08 858.43 595.56 C 863.56 599.69 866.45 605.26 868.62 611.34 C 863.76 611.41 858.90 611.41 854.04 611.35 C 853.42 610.16 852.83 608.99 852.14 607.84 C 848.14 600.48 835.81 600.38 831.15 607.09 C 827.82 611.45 826.86 617.62 826.81 622.97 C 826.96 628.51 827.68 634.24 831.28 638.69 C 835.36 644.03 844.02 645.16 849.56 641.63 C 853.79 638.66 854.65 634.34 855.44 629.55 C 851.42 629.49 847.40 629.50 843.37 629.51 C 843.38 626.19 843.38 622.87 843.39 619.55 C 851.82 619.56 860.26 619.56 868.69 619.55 C 868.74 630.96 868.70 642.38 868.71 653.80 C 865.31 653.79 861.91 653.79 858.50 653.79 C 858.47 650.69 858.46 647.58 858.40 644.48 C 855.64 648.27 852.95 651.68 848.35 653.31 C 840.33 656.05 830.38 654.85 823.85 649.17 C 817.66 644.08 814.51 636.78 813.29 629.01 C 812.01 621.59 813.03 613.76 815.86 606.80 C 819.04 598.96 826.03 592.36 834.45 590.68 Z" fill="#a78807" />
<path d="M 1037.53 590.82 C 1046.32 588.79 1055.92 590.12 1062.98 596.01 C 1070.43 602.09 1073.75 612.67 1073.75 622.00 C 1073.96 631.10 1071.27 641.09 1064.50 647.52 C 1056.45 655.41 1042.77 656.60 1032.74 652.25 C 1023.52 648.24 1018.31 639.43 1016.73 629.78 C 1015.69 621.58 1016.07 613.25 1019.71 605.70 C 1023.10 598.37 1029.60 592.66 1037.53 590.82 Z" fill="#a78807" />
<path d="M 82.60 591.24 C 89.52 591.24 96.43 591.23 103.34 591.24 C 107.51 603.18 111.49 615.18 115.80 627.06 C 119.83 615.13 124.13 603.28 128.01 591.30 C 134.97 591.19 141.93 591.25 148.89 591.23 C 148.89 612.09 148.89 632.94 148.89 653.80 C 144.35 653.79 139.80 653.79 135.26 653.79 C 135.21 639.36 135.36 624.93 135.18 610.50 C 129.91 624.82 125.20 639.36 120.24 653.79 C 117.23 653.78 114.22 653.79 111.21 653.76 C 106.39 639.24 101.34 624.81 96.41 610.33 C 96.16 624.81 96.36 639.29 96.30 653.77 C 91.73 653.80 87.16 653.80 82.60 653.78 C 82.61 632.93 82.60 612.09 82.60 591.24 Z" fill="#a78807" />
<path d="M 403.53 591.24 C 408.22 591.24 412.91 591.24 417.59 591.24 C 417.58 612.09 417.58 632.94 417.59 653.79 C 412.90 653.79 408.22 653.79 403.53 653.79 C 403.54 632.94 403.53 612.09 403.53 591.24 Z" fill="#a78807" />
<path d="M 470.40 591.37 C 477.24 591.00 484.14 591.34 490.99 591.26 C 495.04 603.18 499.25 615.05 503.25 626.98 C 507.73 615.19 511.58 603.15 515.73 591.24 C 522.67 591.23 529.61 591.24 536.55 591.24 C 536.54 612.09 536.54 632.94 536.55 653.79 C 531.94 653.80 527.34 653.80 522.73 653.75 C 522.67 639.31 522.90 624.86 522.60 610.43 C 517.79 624.90 512.70 639.27 507.91 653.75 C 504.90 653.79 501.89 653.79 498.89 653.80 C 493.91 639.30 489.12 624.71 483.89 610.30 C 483.64 624.79 483.85 639.30 483.78 653.79 C 479.27 653.79 474.77 653.79 470.26 653.79 C 470.36 633.03 470.07 612.11 470.40 591.37 Z" fill="#a78807" />
<path d="M 588.55 591.38 C 595.40 590.99 602.32 591.34 609.18 591.27 C 613.43 603.02 616.99 615.07 621.69 626.64 C 625.85 614.87 629.90 603.06 633.94 591.25 C 640.85 591.23 647.77 591.24 654.69 591.24 C 654.68 612.09 654.68 632.94 654.69 653.79 C 650.18 653.79 645.68 653.79 641.18 653.80 C 641.14 639.34 641.28 624.89 641.11 610.44 C 635.67 624.72 631.07 639.34 626.05 653.78 C 623.06 653.78 620.07 653.79 617.08 653.76 C 612.23 639.27 607.05 624.89 602.41 610.35 C 601.87 624.80 602.30 639.30 602.16 653.77 C 597.57 653.80 592.99 653.80 588.41 653.79 C 588.51 633.03 588.21 612.11 588.55 591.38 Z" fill="#a78807" />
<path d="M 920.62 591.38 C 926.05 590.98 931.55 591.35 937.00 591.23 C 944.35 591.30 950.90 590.52 957.52 594.45 C 967.49 600.12 969.89 614.27 963.51 623.50 C 961.36 626.67 958.37 628.33 955.17 630.24 C 959.59 638.08 963.96 645.95 968.44 653.75 C 963.58 653.80 958.72 653.80 953.86 653.79 C 949.67 646.43 945.69 638.94 941.36 631.66 C 939.09 631.77 936.80 631.77 934.55 632.03 C 934.13 639.25 934.52 646.54 934.40 653.77 C 929.76 653.80 925.12 653.80 920.48 653.79 C 920.59 633.03 920.28 612.11 920.62 591.38 Z" fill="#a78807" />
<path d="M 1124.65 591.24 C 1129.28 591.24 1133.91 591.24 1138.54 591.24 C 1138.55 602.83 1138.50 614.42 1138.54 626.01 C 1138.66 630.48 1139.39 635.92 1143.04 638.99 C 1146.96 642.25 1154.22 642.34 1158.18 639.13 C 1161.73 636.05 1162.73 630.51 1162.74 626.03 C 1162.75 614.45 1162.73 602.86 1162.73 591.27 C 1167.38 591.23 1172.03 591.23 1176.68 591.24 C 1176.68 602.16 1176.67 613.08 1176.69 624.00 C 1176.74 629.94 1176.40 635.59 1174.12 641.16 C 1172.03 646.11 1168.00 649.88 1163.19 652.17 C 1157.64 654.92 1151.00 655.15 1144.96 654.33 C 1137.95 653.12 1130.89 648.85 1127.72 642.28 C 1125.16 637.13 1124.70 630.66 1124.64 625.00 C 1124.65 613.75 1124.65 602.49 1124.65 591.24 Z" fill="#a78807" />
<path d="M 1228.55 591.24 C 1237.04 591.29 1245.54 591.13 1254.02 591.29 C 1261.98 591.44 1269.63 595.67 1272.92 603.10 C 1277.35 612.50 1275.12 625.19 1266.00 630.95 C 1258.78 635.71 1250.45 634.29 1242.25 634.47 C 1242.24 640.91 1242.24 647.35 1242.25 653.78 C 1237.68 653.80 1233.11 653.80 1228.55 653.79 C 1228.55 632.94 1228.55 612.09 1228.55 591.24 Z" fill="#a78807" />
<path d="M 729.29 603.32 C 733.83 601.48 739.57 602.29 742.88 606.10 C 747.47 611.53 748.18 618.14 747.84 625.01 C 747.66 630.29 745.81 636.18 741.68 639.70 C 736.77 643.82 728.97 642.98 724.91 638.08 C 720.34 632.58 719.66 624.82 720.43 617.97 C 721.09 612.10 723.74 606.05 729.29 603.32 Z" fill="#ffffff" />
<path d="M 934.53 603.55 C 939.39 603.24 945.41 602.84 949.86 605.15 C 955.24 607.76 954.69 616.97 949.18 619.15 C 944.84 621.08 939.08 620.43 934.39 620.52 C 934.50 614.87 934.14 609.18 934.53 603.55 Z" fill="#ffffff" />
<path d="M 1040.28 603.28 C 1044.88 601.49 1050.49 602.30 1053.81 606.17 C 1057.88 610.86 1059.17 617.97 1058.88 624.01 C 1058.67 629.25 1057.09 635.41 1053.18 639.14 C 1049.31 642.93 1043.05 643.33 1038.54 640.46 C 1030.90 635.24 1030.37 624.23 1031.64 615.94 C 1032.52 610.84 1035.40 605.52 1040.28 603.28 Z" fill="#ffffff" />
<path d="M 1242.39 603.58 C 1247.73 603.27 1255.96 602.62 1259.89 607.08 C 1262.61 611.05 1262.24 618.94 1257.42 621.32 C 1253.11 623.62 1247.04 623.14 1242.30 623.23 C 1242.33 616.69 1242.00 610.10 1242.39 603.58 Z" fill="#ffffff" />
<path d="M 313.45 620.59 C 324.06 620.24 334.74 620.57 345.36 620.46 C 345.36 624.10 345.36 627.74 345.35 631.38 C 334.68 631.40 324.01 631.37 313.34 631.40 C 313.33 627.81 313.12 624.17 313.45 620.59 Z" fill="#a78807" />
</svg>